<svg width="1024" height="1024" viewBox="0 0 1024 1024" fill="none" xmlns="http://www.w3.org/2000/svg">
<g clip-path="url(#clip0)">
<rect width="1024" height="1024" fill="#F18D8D"/>
<rect width="1024" height="1024" fill="url(#paint0_linear)"/>
<rect width="1024" height="1024" fill="url(#paint1_linear)"/>
<g clip-path="url(#clip1)">
<path d="M436.972 460.498C451.726 258.862 609.1 57.2198 820.576 76.8938C791.068 106.402 736.966 116.236 717.298 145.744C918.928 135.91 1150.08 145.744 1336.97 239.188C1253.34 244.108 1164.84 234.274 1081.23 239.188C1159.92 278.536 1243.53 288.37 1322.21 337.552C1381.23 376.9 1474.67 426.076 1514.02 485.092C1430.41 475.252 1341.89 430.99 1258.28 416.236C1282.89 450.664 1322.21 470.338 1346.81 504.76C1386.17 549.022 1420.58 593.284 1469.76 627.712C1376.31 612.958 1273.04 608.038 1189.43 568.696C1209.08 627.712 1297.61 671.974 1346.8 711.316C1405.82 760.498 1459.92 799.84 1538.6 799.84C1445.18 794.92 1366.47 804.76 1273.03 780.166C1332.05 858.856 1464.83 971.968 1464.83 1075.25C1346.8 1011.31 1243.52 898.198 1145.18 809.674C1056.65 888.364 1302.55 1124.43 1376.31 1139.18C1307.45 1139.18 1228.77 1119.51 1164.83 1099.84C1110.73 1080.17 1071.41 1040.82 1017.29 1011.32C992.698 1144.1 1218.93 1193.28 1297.62 1237.55C1209.09 1296.56 1061.55 1232.63 982.87 1188.36C977.962 1296.56 1091.06 1340.82 1164.83 1390.01C1095.98 1419.51 938.608 1360.5 879.592 1311.31C889.438 1360.49 943.522 1375.25 977.962 1404.76C864.838 1414.6 751.732 1301.48 727.132 1198.2" fill="#4066B0"/>
<path d="M451.972 460.498C467.722 270.082 613.642 75.4958 820.576 91.8938C817.042 83.3618 813.502 74.8238 809.968 66.2858C777.88 95.6318 731.536 102.748 704.344 138.172C697.384 147.238 706.828 161.236 717.286 160.744C923.38 151.036 1140.85 159.55 1329.4 252.136C1331.93 242.818 1334.45 233.5 1336.97 224.182C1251.73 228.55 1166.48 219.808 1081.23 224.182C1067.42 224.89 1059.35 245.2 1073.66 252.136C1152.11 290.134 1239.54 305.134 1314.65 350.5C1378.84 389.284 1457.09 430.126 1501.05 492.658C1505.39 485.134 1509.69 477.61 1514.01 470.086C1427.38 458.53 1347.88 418.012 1262.26 401.77C1251.01 399.634 1236.44 412.216 1245.32 423.802C1273.56 460.678 1312.29 488.308 1343.09 523.174C1380.36 565.384 1416.28 607.432 1462.19 640.66C1466.04 631.522 1469.9 622.384 1473.75 613.246C1381.03 598.99 1283.66 594.94 1197 555.742C1186.44 550.96 1169.77 558.964 1174.97 572.68C1200.45 639.904 1272.75 675.508 1327.71 715.438C1395.03 764.35 1450.83 813.004 1538.6 814.84C1558.01 815.242 1557.82 785.74 1538.6 784.84C1450.75 780.718 1363.18 787.264 1277.01 765.706C1265.52 762.832 1251.56 776.584 1260.07 787.738C1294.04 832.24 1333.4 872.296 1369.22 915.256C1406.57 960.04 1448.07 1014.47 1449.83 1075.25C1457.35 1070.93 1464.89 1066.61 1472.41 1062.29C1351.26 995.248 1257.39 891.01 1155.78 799.066C1149.6 793.474 1140.71 793.222 1134.57 799.066C1074.14 856.54 1142.48 950.734 1181.1 999.094C1211.24 1036.85 1246.29 1070.97 1283.79 1101.35C1309.42 1122.12 1339.41 1146.11 1372.33 1153.64C1373.67 1143.82 1374.99 1134 1376.32 1124.18C1311.92 1123.32 1249.09 1108.78 1187.48 1090.97C1126.18 1073.25 1079.53 1029.2 1024.86 998.35C1017.18 994.006 1004.4 997.468 1002.82 1007.31C978.646 1160.11 1191.96 1196.72 1290.05 1250.48C1290.05 1241.85 1290.05 1233.21 1290.05 1224.58C1199.51 1280.99 1073 1221.35 990.43 1175.4C980.398 1169.82 968.068 1176.86 967.846 1188.35C965.716 1302.56 1075.7 1349.39 1157.24 1402.95C1158.43 1393.81 1159.62 1384.67 1160.82 1375.53C1118.24 1392.03 1068.35 1379.21 1026.35 1366.88C978.862 1352.93 929.014 1332.01 890.176 1300.7C878.95 1291.64 861.124 1299.73 865.096 1315.29C878.632 1368.3 928.81 1384.05 967.318 1415.36C970.858 1406.82 974.398 1398.29 977.938 1389.75C866.89 1396.41 767.98 1296.21 741.58 1194.21C736.726 1175.49 707.794 1183.44 712.648 1202.18C742.234 1316.47 853.87 1427.19 977.938 1419.75C989.644 1419.05 999.55 1403.09 988.546 1394.15C956.02 1367.7 905.38 1351.65 894.046 1307.32C885.676 1312.19 877.336 1317.05 868.972 1321.91C910.354 1355.29 960.472 1376.94 1010.66 1393.41C1058.74 1409.2 1119.66 1423.52 1168.8 1404.48C1180.92 1399.79 1183.87 1384.6 1172.39 1377.06C1101.08 1330.23 995.968 1289.01 997.846 1188.37C990.322 1192.69 982.798 1197 975.274 1201.32C1067.89 1252.86 1204.31 1313.35 1305.17 1250.5C1314.45 1244.72 1315.32 1230.17 1305.17 1224.6C1253.73 1196.4 1196.47 1179.68 1143.81 1153.8C1090.31 1127.51 1020.72 1084.73 1031.72 1015.31C1024.37 1018.29 1017.02 1021.28 1009.68 1024.27C1066.97 1056.6 1115.34 1100.88 1179.45 1119.91C1243.29 1138.86 1309.44 1153.29 1376.27 1154.18C1393.05 1154.4 1396.91 1128.53 1380.26 1124.72C1354.12 1118.74 1330.13 1099.79 1309.41 1083.69C1276.52 1058.13 1246.51 1028.73 1218.88 997.606C1187.91 962.71 1105.88 867.682 1155.72 820.282C1148.65 820.282 1141.59 820.282 1134.51 820.282C1238.01 913.924 1333.82 1019.91 1457.22 1088.2C1466.88 1093.55 1480.12 1086.91 1479.79 1075.25C1476.23 951.85 1354.76 862.744 1285.94 772.594C1280.3 779.938 1274.64 787.282 1269 794.626C1357.82 816.856 1447.98 810.586 1538.56 814.834C1538.56 804.832 1538.56 794.836 1538.56 784.834C1459.98 783.196 1408.4 738.736 1348.71 693.964C1300.2 657.568 1226.65 624.856 1203.84 564.7C1196.48 570.346 1189.15 575.992 1181.79 581.638C1271.39 622.156 1369.84 627.424 1465.7 642.166C1482.66 644.776 1491.45 625.018 1477.26 614.752C1436.51 585.25 1403.9 547.492 1371.06 509.752C1356.57 493.096 1343.14 476.392 1326.7 461.56C1307.61 444.334 1286.94 429.244 1271.17 408.658C1265.52 416.002 1259.87 423.346 1254.23 430.69C1342.61 447.46 1424.43 488.134 1513.95 500.08C1525.02 501.556 1532.99 486.16 1526.91 477.508C1483.17 415.288 1412.72 377.308 1349.76 337.57C1311.39 313.348 1272.71 293.95 1229.98 278.536C1182.61 261.448 1134.21 248.248 1088.73 226.222C1086.21 235.54 1083.69 244.858 1081.16 254.176C1166.4 249.808 1251.66 258.544 1336.9 254.176C1350.76 253.468 1358.72 233.224 1344.47 226.222C1150.94 131.176 928.966 120.76 717.232 130.732C721.552 138.256 725.86 145.78 730.186 153.304C754.102 122.128 801.982 114.142 831.106 87.4898C841.498 77.9798 832.654 62.8478 820.492 61.8818C596.464 44.1338 438.892 254.896 421.888 460.486C420.376 479.788 450.388 479.632 451.972 460.498Z" fill="black"/>
<path d="M474.232 449.014C545.416 388 657.28 265.966 764.062 281.224C779.314 332.068 738.64 403.258 708.136 438.85C662.374 499.864 616.618 510.034 545.416 525.292" fill="#9AA8CB"/>
<path d="M484.834 459.622C561.034 393.682 652.246 283.642 764.062 296.224C759.238 292.552 754.426 288.88 749.596 285.214C763.564 342.412 720.616 401.128 686.068 442.474C648.892 486.964 595.522 499.204 541.432 510.832C522.52 514.894 530.542 543.814 549.406 539.758C613.654 525.952 669.502 508.9 713.02 456.826C753.262 408.664 794.494 342.64 778.534 277.24C776.83 270.244 770.656 266.968 764.068 266.23C643.3 252.646 545.824 367.288 463.63 438.418C448.972 451.09 470.284 472.216 484.834 459.622Z" fill="black"/>
<path d="M499.654 479.524C575.926 428.674 626.776 357.49 723.382 342.238C682.72 438.85 601.366 504.952 499.654 494.776" fill="#E597C1"/>
<path d="M507.226 492.478C579.55 443.152 637.222 372.838 727.372 356.704C721.726 349.36 716.074 342.016 710.434 334.672C672.376 421.822 599.404 487.738 499.66 479.782C480.364 478.246 480.514 508.258 499.66 509.782C608.968 518.5 694.366 445.966 736.342 349.81C741.736 337.438 733.084 325.324 719.398 327.778C625.984 344.5 566.974 415.516 492.106 466.576C476.206 477.4 491.194 503.41 507.226 492.478Z" fill="black"/>
<path d="M449.5 490C466 478 493 484 512.5 485.5C527.5 485.5 541 488.5 554.5 493C583 502 614.5 511 640 524.5C677.5 545.5 707.5 572.5 737.5 604C769 635.5 779.5 668.5 788.5 710.5C805 787 790 871 769 946C758.5 983.5 748 1024 739 1063C730 1103.5 748 1144 724 1181.5C701.5 1220.5 646 1235.5 607 1249C581.5 1258 554.5 1282 527.5 1285C499 1288 481 1265.5 461.5 1246C446.5 1231 421 1216 412 1195C404.5 1177 401.5 1156 406 1138C412 1111 424 1105 445 1093C478 1073.5 491.5 1025.5 511 994C532 959.5 545.5 919 547 877C551.5 787 479.5 719.5 479.5 631C479.5 602.5 467.5 577 460 551.5C451 521.5 448 506.5 473.5 487" fill="#9AA8CB"/>
<path d="M457.072 502.954C473.824 493.624 494.398 498.772 512.5 500.5C536.158 502.762 557.116 509.47 579.676 516.628C625.9 531.298 663.256 554.242 698.98 586.852C728.704 613.978 752.938 641.764 765.502 680.518C779.908 724.996 782.314 771.622 778.87 817.918C772.108 908.86 728.962 992.998 721.444 1083.24C717.484 1130.84 728.728 1170.95 682.468 1201.86C652.582 1221.84 615.904 1227.36 583.978 1242.96C566.254 1251.62 550.66 1263.08 531.628 1269.05C509.212 1276.08 491.644 1255.3 477.94 1241.31C445.504 1208.19 408.082 1187.99 422.704 1133.73C427.252 1116.86 445.87 1110.47 458.932 1101.69C469.846 1094.36 477.796 1083.74 485.41 1073.24C506.362 1044.36 522.808 1006.77 538.24 974.644C571.252 905.914 566.206 834.61 536.776 766.186C522.118 732.106 505.912 698.932 497.698 662.554C493.528 644.086 494.638 624.862 491.986 606.16C488.734 583.258 478.432 561.076 471.982 538.948C466.504 520.156 469.132 510.214 484.12 497.608C498.946 485.14 477.61 464.032 462.91 476.398C441.916 494.056 435.91 512.464 441.052 539.134C444.658 557.848 452.38 575.998 458.116 594.118C465.166 616.378 463.102 639.166 467.2 661.834C480.682 736.402 533.692 799.3 532.018 877.006C531.034 922.726 511.684 960.676 490.522 999.808C471.64 1034.73 460.39 1066.22 424.744 1087.46C368.914 1120.73 385.216 1199.19 427.054 1236.08C449.266 1255.67 470.116 1281.17 496.804 1294.54C526.378 1309.35 557.692 1292.33 583.36 1277.66C636.484 1247.28 718.486 1241.8 743.632 1176.06C758.506 1137.22 746.656 1096.2 755.974 1056.32C766.738 1010.19 780.124 964.78 791.668 918.85C812.14 837.328 817.984 753.976 794.434 672.55C774.862 604.846 713.98 552.586 656.11 516.508C621.508 494.938 577.474 482.176 538.066 473.11C508.99 466.42 468.808 462.106 441.946 477.058C425.026 486.46 440.152 512.374 457.072 502.954Z" fill="#9AA8CB"/>
<path d="M453.886 464.272C357.274 504.952 270.838 586.306 184.396 642.238C143.716 667.66 62.3621 713.422 67.444 769.36C67.444 830.374 143.716 810.034 184.396 799.864C260.668 784.612 336.94 774.442 408.124 749.014C458.974 728.674 626.77 637.15 575.92 571.048" fill="#9AA8CC"/>
<path d="M446.32 451.318C380.71 479.884 323.368 522.64 266.386 565.276C217.66 601.738 165.406 632.782 116.626 668.902C81.2741 695.08 45.2561 732.496 53.3441 780.28C60.5561 822.868 101.422 829.33 138.082 824.752C198.106 817.252 259.006 801.868 318.196 789.364C370.024 778.414 418.612 763.252 465.052 737.932C515.632 710.356 639.742 636.586 588.886 563.476C577.924 547.72 551.902 562.69 562.984 578.614C601.084 633.382 475.222 698.614 439.294 717.748C353.554 763.408 251.866 769.102 158.62 790.684C124.594 798.562 73.1202 805.354 83.6082 753.664C92.1822 711.412 148.294 682.21 181.498 661.672C276.742 602.782 357.796 522.358 461.47 477.22C479.158 469.516 463.87 443.68 446.32 451.318Z" fill="black"/>
<path d="M311.518 591.136C346.894 594.766 379.24 567.532 414.31 575.344C433.156 579.544 441.166 550.618 422.284 546.418C382.702 537.604 349.732 565.054 311.518 561.136C292.276 559.162 292.468 589.18 311.518 591.136Z" fill="black"/>
<path d="M465.454 721.69C584.602 845.638 475.258 1019.78 372.094 1119.77C358.18 1133.25 379.414 1154.44 393.304 1140.98C509.104 1028.73 612.022 855.112 480.664 718.474C467.242 704.512 458.05 713.752 471.454 727.69L465.454 721.69Z" fill="black"/>
<path d="M474.232 479.272C566.83 480.166 650.602 510.55 717.79 575.068C755.944 611.71 786.064 655.102 800.164 706.384C814.696 759.202 808.996 816.496 799.084 869.524C781.426 964.084 742.21 1053.14 736.084 1150.01C730.426 1239.66 768.862 1317.38 824.644 1385.05C836.974 1399.99 858.058 1378.64 845.854 1363.83C812.974 1323.93 786.1 1280.73 772.906 1230.36C760.78 1184.02 765.334 1135.02 774.052 1088.56C793.156 986.824 834.994 891.664 838.522 786.928C841.912 686.086 794.89 602.224 720.616 536.95C652.102 476.728 564.352 450.136 474.238 449.266C454.876 449.086 454.894 479.086 474.232 479.272Z" fill="black"/>
<path d="M331.858 459.184C408.13 586.306 519.994 560.878 626.776 626.98C606.436 576.13 540.334 550.708 514.912 504.946C550.504 535.45 601.354 555.796 636.946 591.388C672.538 626.98 672.538 662.572 682.708 708.334C708.13 652.402 657.286 560.878 616.606 520.198C667.456 540.538 697.96 591.388 748.81 616.81C758.98 525.286 621.694 443.932 545.422 433.756C479.314 423.592 397.96 428.68 331.858 459.184Z" fill="#4066B0"/>
<path d="M318.904 466.756C350.278 517.06 391.714 551.314 446.308 573.868C503.914 597.664 565.018 607.492 619.198 639.94C633.148 648.298 645.55 632.314 639.718 619.42C615.838 566.596 557.17 545.53 527.854 497.386C520 503.446 512.146 509.506 504.298 515.56C538.186 543.322 578.074 562.114 612.328 589.318C652.918 621.556 658.192 664.942 668.23 712.324C671.614 728.302 692.212 724.834 697.162 712.324C724.48 643.294 673.924 558.04 627.196 509.596C621.136 517.45 615.076 525.304 609.022 533.152C659.83 555.592 692.542 603.568 741.226 629.764C751.72 635.41 762.958 628.216 763.798 616.81C770.05 531.61 683.692 470.08 615.022 439.354C525.304 399.208 412.78 407.32 324.28 446.23C306.604 454 321.886 479.842 339.418 472.132C417.934 437.614 516.502 432.262 596.806 463.966C657.058 487.75 739.192 543.286 733.798 616.81C741.322 612.49 748.846 608.176 756.37 603.856C707.704 577.654 675.208 529.78 624.166 507.244C609.178 500.626 593.44 517.792 605.992 530.8C645.736 572.002 691.528 645.472 668.236 704.344C677.872 704.344 687.526 704.344 697.162 704.344C688.102 661.624 682.474 622.762 654.202 587.896C620.656 546.526 565.966 527.476 525.508 494.338C512.98 484.078 492.526 497.038 501.952 512.512C531.238 560.608 590.344 582.628 613.816 634.546C620.656 627.706 627.496 620.866 634.336 614.026C589.21 587.002 539.53 573.076 489.736 557.44C428.098 538.084 379.534 507.304 344.8 451.606C334.6 435.244 308.632 450.292 318.904 466.756Z" fill="black"/>
<path d="M170.5 656.5C151 673 83.5001 683.5 65.5001 703C49.0001 722.5 67.0001 749.5 76.0001 767.5" fill="#9AA8CB"/>
<path d="M162.928 643.546C136.948 663.244 99.622 666.388 70.6001 680.974C29.4521 701.668 46.714 743.458 63.046 775.066C71.926 792.262 97.816 777.082 88.948 759.928C82.564 747.55 65.3801 723.862 78.604 711.214C86.566 703.6 100.63 700.234 110.716 696.694C132.874 688.906 159.016 683.902 178.072 669.454C193.276 657.922 178.354 631.852 162.928 643.546Z" fill="black"/>
<path d="M74.5 793C85 830.5 146.5 847 178 841C217 832 220 782.5 260.5 770.5" fill="#9AA8CB"/>
<path d="M60.034 796.99C74.35 836.74 115.774 852.472 154.87 856.816C173.188 858.85 192.97 855.016 207.232 842.794C227.83 825.142 237.898 794.872 264.484 784.972C282.448 778.282 274.678 749.278 256.51 756.046C224.578 767.932 213.34 794.068 191.038 817.282C166.09 843.238 99.994 819.664 88.96 789.028C82.462 770.956 53.464 778.744 60.034 796.99Z" fill="black"/>
<path d="M353.392 560.392C341.32 570.802 336.43 588.796 344.86 602.974C354.61 619.378 375.946 618.832 390.76 610.348C405.04 602.17 411.052 583.306 401.26 569.344C391.144 554.914 373.282 551.878 357.934 559.546C350.626 563.2 348.628 573.364 352.552 580.066C356.884 587.458 365.764 589.102 373.072 585.448C374.668 584.656 374.662 584.656 373.06 585.442C373.828 585.196 374.614 585.004 375.412 584.86C370.888 585.826 379.036 585.814 374.14 584.95C374.836 585.094 375.52 585.286 376.198 585.514C374.254 584.626 374.008 584.542 375.466 585.28C376.834 586.156 376.666 585.952 374.956 584.656C375.748 585.268 376.42 586.012 377.086 586.756C373.93 583.258 377.77 589.804 376.066 585.148C376.264 585.748 376.414 586.36 376.522 586.978C375.592 582.58 375.634 588.094 376.42 583.732C375.958 585.262 376.126 585.01 376.924 582.976C376.606 583.618 376.24 584.224 375.82 584.812C377.002 583.276 377.002 583.138 375.814 584.398C378.076 582.202 374.842 584.89 374.326 585.184C372.772 586.072 373.198 585.76 370.6 586.432C368.764 586.792 368.752 586.798 370.576 586.45C369.76 586.486 368.95 586.468 368.134 586.396C370.216 586.702 370.45 586.66 368.824 586.276C370.756 587.182 371.002 587.266 369.574 586.516C368.218 585.616 368.446 585.796 370.258 587.05C367.816 584.848 371.938 589.81 370.258 586.99C372.652 591.016 370 584.116 370.594 588.838C370.528 588.142 370.504 587.44 370.528 586.738C370.534 583.132 369.772 590.014 370.672 586.396C371.206 584.83 371.116 584.932 370.402 586.708C370.756 585.97 371.152 585.256 371.584 584.566C372.526 583.192 372.52 583.162 371.572 584.494C372.472 583.426 373.54 582.508 374.596 581.602C380.794 576.256 380.056 565.852 374.596 560.392C368.506 554.296 359.578 555.058 353.392 560.392Z" fill="black"/>
<path d="M76.324 814.714C92.23 825.766 108.844 830.038 127.126 821.38C155.08 808.138 182.032 795.514 210.994 784.348C224.38 779.188 218.572 757.426 205.012 762.652C187.522 769.396 169.324 774.808 152.332 782.77C130.42 793.036 111.718 811.984 87.682 795.286C75.7301 786.988 64.498 806.5 76.324 814.714Z" fill="black"/>
<path d="M123.412 707.938C120.412 692.938 145.912 689.938 144.412 707.938C144.412 718.438 123.412 733.438 114.412 736.438C108.412 740.938 75.4121 745.438 87.4121 727.438C93.4121 716.938 115.912 727.438 123.412 709.438" fill="black"/>
<path d="M130.912 707.938C130.552 704.86 132.82 700.798 136.336 703.834C140.95 707.818 130.834 716.644 128.596 718.726C121.51 725.32 112.144 730.618 102.604 732.49C99.2441 733.15 94.3061 733.702 91.1381 732.064C94.5461 733.822 92.0441 731.596 95.0921 730.366C97.7441 729.292 100.882 729.208 103.696 728.89C115.054 727.612 124.54 723.934 129.886 713.224C134.194 704.596 121.258 696.994 116.938 705.652C111.514 716.518 99.0041 712.708 89.3681 716.608C81.1541 719.938 76.2941 729.088 77.8001 737.716C80.7521 754.588 108.652 746.626 118.108 743.02C135.202 736.504 160.018 716.584 149.188 696.094C140.296 679.276 113.866 690.448 115.912 707.944C117.022 717.424 132.034 717.532 130.912 707.938Z" fill="black"/>
<path d="M775 501.85C835 504.85 961 573.85 964 642.85C964 669.85 943 696.85 943 726.85C943 765.85 976 780.85 1000 807.85C1027 840.85 1003 843.85 976 870.85C955 894.85 940 918.85 934 951.85C928 1011.85 931 1074.85 967 1125.85C922 1086.85 883 1023.85 883 960.85C880 924.85 901 894.85 904 858.85C910 822.85 892 792.85 880 756.85C871 720.85 868 702.85 883 669.85C895 636.85 910 615.85 883 588.85C868 570.85 841 555.85 826 540.85C805 522.85 778 489.85 751 486.85" fill="#214BA0"/>
<path d="M775 513.1C831.634 517.516 891.304 553.858 929.128 594.718C957.418 625.276 953.08 652.66 939.544 689.104C929.266 716.8 928.894 743.914 945.544 768.922C953.17 780.376 964.378 789.472 974.506 798.58C993.526 815.668 1005.54 831.106 982.186 850.216C956.71 871.06 938.74 899.236 927.808 930.064C905.776 992.182 921.628 1077.83 957.286 1131.53C963.166 1126.98 969.064 1122.44 974.956 1117.89C919.396 1067.93 878.776 993.076 900.688 917.338C909.118 888.178 918.448 861.34 915.412 830.488C912.13 797.17 893.446 766.708 886.264 734.152C873.904 678.118 934.846 630.796 890.956 580.894C871.072 558.268 843.844 542.506 821.938 521.86C801.856 502.936 782.02 481.822 753.988 476.002C739.834 473.062 733.81 494.752 748.012 497.698C778.576 504.046 801.382 533.386 823.456 553.81C844.438 573.214 891.166 593.17 886.138 627.61C882.256 654.31 862.924 676.81 861.622 704.362C860.236 733.69 869.212 761.176 879.7 788.2C893.998 825.04 896.392 855.118 884.758 893.326C875.638 923.254 870.058 948.25 872.884 979.72C878.26 1039.47 915.514 1094.66 959.026 1133.8C968.152 1142.01 984.094 1131.28 976.696 1120.17C928.996 1048.35 925.378 933.766 991.192 871.99C1006.23 857.866 1033.08 842.32 1019.65 817.516C1001.62 784.252 956.926 767.692 954.232 726.844C951.952 692.248 979.972 664.372 973.222 628.366C968.386 602.626 947.854 580.366 929.47 563.248C889.21 525.802 830.398 494.914 774.982 490.594C760.522 489.472 760.63 511.984 775 513.1Z" fill="#214BA0"/>
<path d="M853 277C898 265 958 271 1003 283C1015 286 1051 292 1060 310C1066 325 1045 331 1051 349C1057 376 1144 403 1168 418C1198 433 1234 448 1261 472C1228 493 1153 484 1120 475C1087 463 1018 439 997 412C982 391 997 379 985 355C973 337 943 322 922 310C901 298 859 262 835 268" fill="#214BA0"/>
<path d="M855.988 287.848C907.384 275.65 958.06 284.344 1008.62 295.834C1028.75 300.412 1054.29 305.662 1041.49 330.34C1036.28 340.366 1039.15 352.51 1044.59 361.714C1059.84 387.514 1101.35 399.934 1126.97 411.022C1170.09 429.706 1216.84 449.71 1253.05 479.956C1253.81 474.07 1254.57 468.178 1255.33 462.286C1217.97 483.106 1162.52 474.28 1122.99 464.152C1102.87 458.998 1082.48 449.332 1063.49 441.112C1042.65 432.1 1003.91 417.604 1001.03 391.066C999.388 375.784 1003.49 360.442 992.962 347.05C977.836 327.814 955.996 316.168 934.978 304.402C905.206 287.734 871.858 252.202 835.006 256.756C820.798 258.508 820.63 281.032 835.006 279.256C858.424 276.364 882.07 296.878 900.328 309.352C921.988 324.16 946.306 334.678 966.694 351.406C986.572 367.726 971.788 390.826 982.978 410.188C992.506 426.676 1006.74 436.594 1022.96 446.116C1087.11 483.802 1195.85 521.2 1266.7 481.72C1272.63 478.408 1274.55 468.7 1268.98 464.05C1232.75 433.78 1187.7 413.152 1144.61 394.312C1124.91 385.696 1105.17 377.314 1086.29 366.958C1078.57 362.716 1071.42 357.754 1065.14 351.586C1055.45 342.088 1068.45 333.118 1070.67 324.136C1079.17 289.708 1034.95 278.758 1009.83 273.052C956.938 261.028 903.652 253.432 850.024 266.152C835.888 269.5 841.876 291.196 855.988 287.848Z" fill="#214BA0"/>
<path d="M529 313C556 280 559 235 592 205C613 187 643 175 673 175C661 235 556 256 532 313" fill="#214BA0"/>
<path d="M538.714 318.676C555.706 296.17 564.436 269.776 576.712 244.678C595.108 207.088 632.158 187.858 673 186.25C669.376 181.504 665.77 176.752 662.146 172.006C653.458 206.446 617.452 225.004 589.762 242.866C563.512 259.798 536.05 278.254 522.286 307.324C516.112 320.362 535.51 331.786 541.714 318.682C571.342 256.126 665.842 249.322 683.842 177.994C685.576 171.136 680.464 163.462 672.994 163.75C637.156 165.16 603.454 177.706 577.822 203.236C549.304 231.646 543.25 275.566 519.28 307.324C510.538 318.91 530.092 330.106 538.714 318.676Z" fill="#214BA0"/>
<path d="M406 466C439 463 472 463 505 463C490 463 478 469 466 472C463 490 478 502 490 514C463 517 427 496 406 475" fill="#214BA0"/>
<path d="M406 469.75C438.952 466.978 471.952 466.756 505 466.75C505 464.248 505 461.752 505 459.25C490.978 460.012 478.414 464.626 465.004 468.382C463.318 468.856 462.358 470.308 462.25 472C461.008 491.842 474.136 503.68 487.348 516.652C488.23 514.522 489.112 512.386 490 510.25C459.19 511.966 430.06 492.838 408.652 472.348C405.16 469.006 399.85 474.304 403.348 477.652C426.172 499.498 457.18 519.574 490 517.75C493.168 517.576 495.094 513.748 492.652 511.348C483.694 502.552 474.376 494.398 470.05 482.182C465.592 469.582 498.868 467.086 505 466.75C509.794 466.492 509.866 459.25 505 459.25C471.952 459.256 438.952 459.478 406 462.25C401.218 462.652 401.176 470.152 406 469.75Z" fill="#214BA0"/>
<path d="M335.998 719.236C375.214 711.226 404.986 681.598 432.304 654.304C439.156 647.464 428.548 636.856 421.696 643.696C396.13 669.232 368.722 697.27 332.002 704.764C322.534 706.702 326.554 721.162 335.998 719.236Z" fill="#6383C2"/>
<path d="M439 634C460 595 505 622 541 622C469 658 412 724 325 712" fill="#6383C2"/>
<path d="M445.474 637.786C466.396 605.554 510.19 628.102 541 629.5C539.74 624.844 538.48 620.182 537.214 615.526C467.968 651.394 408.964 713.548 325 704.5C315.388 703.462 315.49 718.474 325 719.5C412.102 728.884 472.87 665.728 544.786 628.474C551.758 624.862 548.05 614.818 541 614.5C501.862 612.718 458.914 589.564 432.526 630.214C427.24 638.356 440.23 645.868 445.474 637.786Z" fill="#6383C2"/>
<path d="M715 760C736 742 727 703 721 679C763 730 775 754 763 820C754 874 733 928 718 982C703 1042 703 1096 709 1156C712 1189 718 1222 727 1252C736 1276 754 1303 760 1330C685 1279 652 1126 655 1039C655 988 667 931 679 880C688 835 718 793 727 748" fill="#6383C2"/>
<path d="M720.304 765.304C743.206 741.052 735.436 706.384 728.23 677.008C724.054 679.444 719.872 681.874 715.696 684.304C750.772 727.348 765.214 762.04 755.77 818.008C745.132 881.038 718.81 939.856 705.838 1002.25C693.826 1059.99 696.886 1119.84 703.96 1177.97C707.086 1203.74 712.648 1229.07 719.788 1254C727.546 1281.14 745.384 1304.4 752.788 1332C756.454 1329.17 760.138 1326.35 763.804 1323.53C692.086 1271.84 669.808 1161.43 663.388 1078.82C659.038 1023.03 667.534 967.636 679.15 913.216C685.528 883.312 693.082 855.202 705.34 827.11C716.404 801.73 727.948 777.1 734.242 749.992C736.426 740.578 721.972 736.582 719.782 746.002C712.852 775.798 699.208 802.576 687.544 830.662C674.17 862.882 667.168 896.47 660.226 930.556C649.27 984.274 644.542 1038.67 649.618 1093.32C657.442 1177.56 683.644 1284.17 756.232 1336.47C761.806 1340.49 768.844 1333.9 767.248 1328C761.23 1305.57 750.7 1285.41 740.602 1264.62C724.654 1231.78 720.154 1191.84 716.518 1155.99C709.414 1085.77 714.148 1019.24 734.836 951.586C752.146 894.934 773.872 837.226 774.94 777.292C775.666 736.252 751.018 703.978 726.328 673.69C721.306 667.534 712.138 674.23 713.788 680.986C719.476 704.182 728.392 734.926 709.714 754.69C703.06 761.722 713.638 772.348 720.304 765.304Z" fill="#6383C2"/>
</g>
</g>
<defs>
<linearGradient id="paint0_linear" x1="512" y1="0" x2="512" y2="1024" gradientUnits="userSpaceOnUse">
<stop stop-color="#1C2130"/>
<stop offset="1" stop-color="#1C2130"/>
</linearGradient>
<linearGradient id="paint1_linear" x1="512" y1="0" x2="512" y2="1024" gradientUnits="userSpaceOnUse">
<stop stop-color="#D7DDE8"/>
<stop offset="1" stop-color="#D7DDE8"/>
</linearGradient>
<clipPath id="clip0">
<rect width="1024" height="1024" fill="white"/>
</clipPath>
<clipPath id="clip1">
<rect width="3000" height="3000" fill="white" transform="translate(-842 -122)"/>
</clipPath>
</defs>
</svg>
